# xmcd
#
# Track frame offsets: 
#        182
#        11072
#        20280
#        32382
#        42047
#        52602
#        62915
#        77697
#        87592
#        100885
#
# Disc length: 1513 seconds
#
# Revision: 3
# Processed by: cddbd v1.5.1PL2 Copyright (c) Steve Scherf et al.
# Submitted via: ExactAudioCopy v0.95b4
#
DISCID=6a05e70a
DTITLE=Doug Kershaw - The Best of Doug Kershaw
DYEAR=1972
DGENRE=Cajun
TTITLE0=Diggy Diggy Lo
TTITLE1=You Don't Want My Love
TTITLE2=Louisiana Man
TTITLE3=It Takes All Day (To Get Over Night)
TTITLE4=Mamou Two-Step
TTITLE5=Jambalaya (On The Bayou)
TTITLE6=Hippy Ti Yo
TTITLE7=Mama's Got The Know How
TTITLE8=(Had It Not Been For) My Sally Jo
TTITLE9=I'm Walkin'
EXTD=YEAR: 1972
EXTT0=
EXTT1=
EXTT2=
EXTT3=
EXTT4=
EXTT5=
EXTT6=
EXTT7=
EXTT8=
EXTT9=
PLAYORDER=
